<svg width="480" height="1080" viewBox="0 0 480 1080" 
    xmlns="http://www.w3.org/2000/svg">
    <line x1="0" y1="0" x2="0" y2="1080" stroke="rgba(255,255,255,0.08)" stroke-width="1"/><line x1="120" y1="0" x2="120" y2="1080" stroke="rgba(255,255,255,0.08)" stroke-width="1"/><line x1="240" y1="0" x2="240" y2="1080" stroke="rgba(255,255,255,0.08)" stroke-width="1"/><line x1="360" y1="0" x2="360" y2="1080" stroke="rgba(255,255,255,0.08)" stroke-width="1"/><line x1="0" y1="0" x2="480" y2="0" stroke="rgba(255,255,255,0.08)" stroke-width="1"/><line x1="0" y1="24" x2="480" y2="24" stroke="rgba(255,255,255,0.08)" stroke-width="1"/><line x1="0" y1="48" x2="480" y2="48" stroke="rgba(255,255,255,0.08)" stroke-width="1"/><line x1="0" y1="72" x2="480" y2="72" stroke="rgba(255,255,255,0.08)" stroke-width="1"/><line x1="0" y1="96" x2="480" y2="96" stroke="rgba(255,255,255,0.08)" stroke-width="1"/><line x1="0" y1="120" x2="480" y2="120" stroke="rgba(255,255,255,0.08)" stroke-width="1"/><line x1="0" y1="144" x2="480" y2="144" stroke="rgba(255,255,255,0.08)" stroke-width="1"/><line x1="0" y1="168" x2="480" y2="168" stroke="rgba(255,255,255,0.08)" stroke-width="1"/><line x1="0" y1="192" x2="480" y2="192" stroke="rgba(255,255,255,0.08)" stroke-width="1"/><line x1="0" y1="216" x2="480" y2="216" stroke="rgba(255,255,255,0.08)" stroke-width="1"/><line x1="0" y1="240" x2="480" y2="240" stroke="rgba(255,255,255,0.08)" stroke-width="1"/><line x1="0" y1="264" x2="480" y2="264" stroke="rgba(255,255,255,0.08)" stroke-width="1"/><line x1="0" y1="288" x2="480" y2="288" stroke="rgba(255,255,255,0.08)" stroke-width="1"/><line x1="0" y1="312" x2="480" y2="312" stroke="rgba(255,255,255,0.08)" stroke-width="1"/><line x1="0" y1="336" x2="480" y2="336" stroke="rgba(255,255,255,0.08)" stroke-width="1"/><line x1="0" y1="360" x2="480" y2="360" stroke="rgba(255,255,255,0.08)" stroke-width="1"/><line x1="0" y1="384" x2="480" y2="384" stroke="rgba(255,255,255,0.08)" stroke-width="1"/><line x1="0" y1="408" x2="480" y2="408" stroke="rgba(255,255,255,0.08)" stroke-width="1"/><line x1="0" y1="432" x2="480" y2="432" stroke="rgba(255,255,255,0.08)" stroke-width="1"/><line x1="0" y1="456" x2="480" y2="456" stroke="rgba(255,255,255,0.08)" stroke-width="1"/><line x1="0" y1="480" x2="480" y2="480" stroke="rgba(255,255,255,0.08)" stroke-width="1"/><line x1="0" y1="504" x2="480" y2="504" stroke="rgba(255,255,255,0.08)" stroke-width="1"/><line x1="0" y1="528" x2="480" y2="528" stroke="rgba(255,255,255,0.08)" stroke-width="1"/><line x1="0" y1="552" x2="480" y2="552" stroke="rgba(255,255,255,0.08)" stroke-width="1"/><line x1="0" y1="576" x2="480" y2="576" stroke="rgba(255,255,255,0.08)" stroke-width="1"/><line x1="0" y1="600" x2="480" y2="600" stroke="rgba(255,255,255,0.08)" stroke-width="1"/><line x1="0" y1="624" x2="480" y2="624" stroke="rgba(255,255,255,0.08)" stroke-width="1"/><line x1="0" y1="648" x2="480" y2="648" stroke="rgba(255,255,255,0.08)" stroke-width="1"/><line x1="0" y1="672" x2="480" y2="672" stroke="rgba(255,255,255,0.08)" stroke-width="1"/><line x1="0" y1="696" x2="480" y2="696" stroke="rgba(255,255,255,0.08)" stroke-width="1"/><line x1="0" y1="720" x2="480" y2="720" stroke="rgba(255,255,255,0.08)" stroke-width="1"/><line x1="0" y1="744" x2="480" y2="744" stroke="rgba(255,255,255,0.08)" stroke-width="1"/><line x1="0" y1="768" x2="480" y2="768" stroke="rgba(255,255,255,0.08)" stroke-width="1"/><line x1="0" y1="792" x2="480" y2="792" stroke="rgba(255,255,255,0.08)" stroke-width="1"/><line x1="0" y1="816" x2="480" y2="816" stroke="rgba(255,255,255,0.08)" stroke-width="1"/><line x1="0" y1="840" x2="480" y2="840" stroke="rgba(255,255,255,0.08)" stroke-width="1"/><line x1="0" y1="864" x2="480" y2="864" stroke="rgba(255,255,255,0.08)" stroke-width="1"/><line x1="0" y1="888" x2="480" y2="888" stroke="rgba(255,255,255,0.08)" stroke-width="1"/><line x1="0" y1="912" x2="480" y2="912" stroke="rgba(255,255,255,0.08)" stroke-width="1"/><line x1="0" y1="936" x2="480" y2="936" stroke="rgba(255,255,255,0.08)" stroke-width="1"/><line x1="0" y1="960" x2="480" y2="960" stroke="rgba(255,255,255,0.08)" stroke-width="1"/><line x1="0" y1="984" x2="480" y2="984" stroke="rgba(255,255,255,0.08)" stroke-width="1"/><line x1="0" y1="1008" x2="480" y2="1008" stroke="rgba(255,255,255,0.08)" stroke-width="1"/><line x1="0" y1="1032" x2="480" y2="1032" stroke="rgba(255,255,255,0.08)" stroke-width="1"/><line x1="0" y1="1056" x2="480" y2="1056" stroke="rgba(255,255,255,0.08)" stroke-width="1"/>
    </svg>