<svg width="1920" height="1080" viewBox="0 0 1920 1080" 
    xmlns="http://www.w3.org/2000/svg">
    <line x1="0" y1="0" x2="0" y2="1080" stroke="rgba(255,255,255,0.08)" stroke-width="1"/><line x1="80" y1="0" x2="80" y2="1080" stroke="rgba(255,255,255,0.08)" stroke-width="1"/><line x1="160" y1="0" x2="160" y2="1080" stroke="rgba(255,255,255,0.08)" stroke-width="1"/><line x1="240" y1="0" x2="240" y2="1080" stroke="rgba(255,255,255,0.08)" stroke-width="1"/><line x1="320" y1="0" x2="320" y2="1080" stroke="rgba(255,255,255,0.08)" stroke-width="1"/><line x1="400" y1="0" x2="400" y2="1080" stroke="rgba(255,255,255,0.08)" stroke-width="1"/><line x1="480" y1="0" x2="480" y2="1080" stroke="rgba(255,255,255,0.08)" stroke-width="1"/><line x1="560" y1="0" x2="560" y2="1080" stroke="rgba(255,255,255,0.08)" stroke-width="1"/><line x1="640" y1="0" x2="640" y2="1080" stroke="rgba(255,255,255,0.08)" stroke-width="1"/><line x1="720" y1="0" x2="720" y2="1080" stroke="rgba(255,255,255,0.08)" stroke-width="1"/><line x1="800" y1="0" x2="800" y2="1080" stroke="rgba(255,255,255,0.08)" stroke-width="1"/><line x1="880" y1="0" x2="880" y2="1080" stroke="rgba(255,255,255,0.08)" stroke-width="1"/><line x1="960" y1="0" x2="960" y2="1080" stroke="rgba(255,255,255,0.08)" stroke-width="1"/><line x1="1040" y1="0" x2="1040" y2="1080" stroke="rgba(255,255,255,0.08)" stroke-width="1"/><line x1="1120" y1="0" x2="1120" y2="1080" stroke="rgba(255,255,255,0.08)" stroke-width="1"/><line x1="1200" y1="0" x2="1200" y2="1080" stroke="rgba(255,255,255,0.08)" stroke-width="1"/><line x1="1280" y1="0" x2="1280" y2="1080" stroke="rgba(255,255,255,0.08)" stroke-width="1"/><line x1="1360" y1="0" x2="1360" y2="1080" stroke="rgba(255,255,255,0.08)" stroke-width="1"/><line x1="1440" y1="0" x2="1440" y2="1080" stroke="rgba(255,255,255,0.08)" stroke-width="1"/><line x1="1520" y1="0" x2="1520" y2="1080" stroke="rgba(255,255,255,0.08)" stroke-width="1"/><line x1="1600" y1="0" x2="1600" y2="1080" stroke="rgba(255,255,255,0.08)" stroke-width="1"/><line x1="1680" y1="0" x2="1680" y2="1080" stroke="rgba(255,255,255,0.08)" stroke-width="1"/><line x1="1760" y1="0" x2="1760" y2="1080" stroke="rgba(255,255,255,0.08)" stroke-width="1"/><line x1="1840" y1="0" x2="1840" y2="1080" stroke="rgba(255,255,255,0.08)" stroke-width="1"/><line x1="0" y1="0" x2="1920" y2="0" stroke="rgba(255,255,255,0.08)" stroke-width="1"/><line x1="0" y1="60" x2="1920" y2="60" stroke="rgba(255,255,255,0.08)" stroke-width="1"/><line x1="0" y1="120" x2="1920" y2="120" stroke="rgba(255,255,255,0.08)" stroke-width="1"/><line x1="0" y1="180" x2="1920" y2="180" stroke="rgba(255,255,255,0.08)" stroke-width="1"/><line x1="0" y1="240" x2="1920" y2="240" stroke="rgba(255,255,255,0.08)" stroke-width="1"/><line x1="0" y1="300" x2="1920" y2="300" stroke="rgba(255,255,255,0.08)" stroke-width="1"/><line x1="0" y1="360" x2="1920" y2="360" stroke="rgba(255,255,255,0.08)" stroke-width="1"/><line x1="0" y1="420" x2="1920" y2="420" stroke="rgba(255,255,255,0.08)" stroke-width="1"/><line x1="0" y1="480" x2="1920" y2="480" stroke="rgba(255,255,255,0.08)" stroke-width="1"/><line x1="0" y1="540" x2="1920" y2="540" stroke="rgba(255,255,255,0.08)" stroke-width="1"/><line x1="0" y1="600" x2="1920" y2="600" stroke="rgba(255,255,255,0.08)" stroke-width="1"/><line x1="0" y1="660" x2="1920" y2="660" stroke="rgba(255,255,255,0.08)" stroke-width="1"/><line x1="0" y1="720" x2="1920" y2="720" stroke="rgba(255,255,255,0.08)" stroke-width="1"/><line x1="0" y1="780" x2="1920" y2="780" stroke="rgba(255,255,255,0.08)" stroke-width="1"/><line x1="0" y1="840" x2="1920" y2="840" stroke="rgba(255,255,255,0.08)" stroke-width="1"/><line x1="0" y1="900" x2="1920" y2="900" stroke="rgba(255,255,255,0.08)" stroke-width="1"/><line x1="0" y1="960" x2="1920" y2="960" stroke="rgba(255,255,255,0.08)" stroke-width="1"/><line x1="0" y1="1020" x2="1920" y2="1020" stroke="rgba(255,255,255,0.08)" stroke-width="1"/>
    </svg>