<svg width="1920" height="120" viewBox="0 0 1920 120" 
    xmlns="http://www.w3.org/2000/svg">
    <line x1="0" y1="0" x2="0" y2="120" stroke="rgba(255,255,255,0.08)" stroke-width="1"/><line x1="80" y1="0" x2="80" y2="120" stroke="rgba(255,255,255,0.08)" stroke-width="1"/><line x1="160" y1="0" x2="160" y2="120" stroke="rgba(255,255,255,0.08)" stroke-width="1"/><line x1="240" y1="0" x2="240" y2="120" stroke="rgba(255,255,255,0.08)" stroke-width="1"/><line x1="320" y1="0" x2="320" y2="120" stroke="rgba(255,255,255,0.08)" stroke-width="1"/><line x1="400" y1="0" x2="400" y2="120" stroke="rgba(255,255,255,0.08)" stroke-width="1"/><line x1="480" y1="0" x2="480" y2="120" stroke="rgba(255,255,255,0.08)" stroke-width="1"/><line x1="560" y1="0" x2="560" y2="120" stroke="rgba(255,255,255,0.08)" stroke-width="1"/><line x1="640" y1="0" x2="640" y2="120" stroke="rgba(255,255,255,0.08)" stroke-width="1"/><line x1="720" y1="0" x2="720" y2="120" stroke="rgba(255,255,255,0.08)" stroke-width="1"/><line x1="800" y1="0" x2="800" y2="120" stroke="rgba(255,255,255,0.08)" stroke-width="1"/><line x1="880" y1="0" x2="880" y2="120" stroke="rgba(255,255,255,0.08)" stroke-width="1"/><line x1="960" y1="0" x2="960" y2="120" stroke="rgba(255,255,255,0.08)" stroke-width="1"/><line x1="1040" y1="0" x2="1040" y2="120" stroke="rgba(255,255,255,0.08)" stroke-width="1"/><line x1="1120" y1="0" x2="1120" y2="120" stroke="rgba(255,255,255,0.08)" stroke-width="1"/><line x1="1200" y1="0" x2="1200" y2="120" stroke="rgba(255,255,255,0.08)" stroke-width="1"/><line x1="1280" y1="0" x2="1280" y2="120" stroke="rgba(255,255,255,0.08)" stroke-width="1"/><line x1="1360" y1="0" x2="1360" y2="120" stroke="rgba(255,255,255,0.08)" stroke-width="1"/><line x1="1440" y1="0" x2="1440" y2="120" stroke="rgba(255,255,255,0.08)" stroke-width="1"/><line x1="1520" y1="0" x2="1520" y2="120" stroke="rgba(255,255,255,0.08)" stroke-width="1"/><line x1="1600" y1="0" x2="1600" y2="120" stroke="rgba(255,255,255,0.08)" stroke-width="1"/><line x1="1680" y1="0" x2="1680" y2="120" stroke="rgba(255,255,255,0.08)" stroke-width="1"/><line x1="1760" y1="0" x2="1760" y2="120" stroke="rgba(255,255,255,0.08)" stroke-width="1"/><line x1="1840" y1="0" x2="1840" y2="120" stroke="rgba(255,255,255,0.08)" stroke-width="1"/><line x1="0" y1="0" x2="1920" y2="0" stroke="rgba(255,255,255,0.08)" stroke-width="1"/><line x1="0" y1="40" x2="1920" y2="40" stroke="rgba(255,255,255,0.08)" stroke-width="1"/><line x1="0" y1="80" x2="1920" y2="80" stroke="rgba(255,255,255,0.08)" stroke-width="1"/>
    </svg>